HIERARCHY
ROOT Pelvis
{
	OFFSET 0.000000 0.941512 0.000000
	CHANNELS 6 Xposition Yposition Zposition Zrotation Yrotation Xrotation 
	JOINT Pelvis_L_Hip
	{
		OFFSET 0.000000 0.000000 0.000000
		CHANNELS 3 Zrotation Yrotation Xrotation
		JOINT L_Hip
		{
			OFFSET 0.062321 -0.080322 -0.016990
			CHANNELS 3 Zrotation Yrotation Xrotation
			JOINT L_Knee
			{
				OFFSET 0.093051 -0.381305 -0.029784
				CHANNELS 3 Zrotation Yrotation Xrotation
				JOINT L_Ankle
				{
					OFFSET -0.010371 -0.431000 -0.033614
					CHANNELS 3 Zrotation Yrotation Xrotation
					End Site #name: L_Foot
					{
						OFFSET 0.069299 -0.038670 0.119418
					}
				}
			}
		}
	}
	JOINT Pelvis_R_Hip
	{
		OFFSET 0.000000 0.000000 0.000000
		CHANNELS 3 Zrotation Yrotation Xrotation
		JOINT R_Hip
		{
			OFFSET -0.055334 -0.094904 -0.002373
			CHANNELS 3 Zrotation Yrotation Xrotation
			JOINT R_Knee
			{
				OFFSET -0.064207 -0.384370 -0.019592
				CHANNELS 3 Zrotation Yrotation Xrotation
				JOINT R_Ankle
				{
					OFFSET 0.025418 -0.419734 -0.065953
					CHANNELS 3 Zrotation Yrotation Xrotation
					End Site #name: R_Foot
					{
						OFFSET -0.057233 -0.039888 0.132134
					}
				}
			}
		}
	}
	JOINT Pelvis_Spine1
	{
		OFFSET 0.000000 0.000000 0.000000
		CHANNELS 3 Zrotation Yrotation Xrotation
		JOINT Spine1
		{
			OFFSET -0.005562 0.124093 -0.043360
			CHANNELS 3 Zrotation Yrotation Xrotation
			JOINT Spine2
			{
				OFFSET 0.012244 0.139499 0.029894
				CHANNELS 3 Zrotation Yrotation Xrotation
				JOINT Spine3
				{
					OFFSET -0.002556 0.056561 0.009225
					CHANNELS 3 Zrotation Yrotation Xrotation
					JOINT Spine3_Neck
					{
						OFFSET 0.000000 0.000000 0.000000
						CHANNELS 3 Zrotation Yrotation Xrotation
						JOINT Neck
						{
							OFFSET -0.005205 0.217920 -0.024551
							CHANNELS 3 Zrotation Yrotation Xrotation
							End Site #name: Head
							{
								OFFSET 0.002365 0.091850 0.046637
							}
						}
					}
					JOINT Spine3_L_Collar
					{
						OFFSET 0.000000 0.000000 0.000000
						CHANNELS 3 Zrotation Yrotation Xrotation
						JOINT L_Collar
						{
							OFFSET 0.072225 0.116603 -0.009480
							CHANNELS 3 Zrotation Yrotation Xrotation
							JOINT L_Shoulder
							{
								OFFSET 0.115937 -0.058643 -0.021018
								CHANNELS 3 Zrotation Yrotation Xrotation
								JOINT L_Elbow
								{
									OFFSET 0.021994 -0.254722 -0.024492
									CHANNELS 3 Zrotation Yrotation Xrotation
									End Site #name: L_Wrist
									{
										OFFSET 0.048810 -0.240214 0.103329
									}
								}
							}
						}
					}
					JOINT Spine3_R_Collar
					{
						OFFSET 0.000000 0.000000 0.000000
						CHANNELS 3 Zrotation Yrotation Xrotation
						JOINT R_Collar
						{
							OFFSET -0.073372 0.120704 -0.024611
							CHANNELS 3 Zrotation Yrotation Xrotation
							JOINT R_Shoulder
							{
								OFFSET -0.108089 -0.054969 -0.020504
								CHANNELS 3 Zrotation Yrotation Xrotation
								JOINT R_Elbow
								{
									OFFSET -0.033684 -0.260739 0.009889
									CHANNELS 3 Zrotation Yrotation Xrotation
									End Site #name: R_Wrist
									{
										OFFSET -0.067980 -0.232763 0.118463
									}
								}
							}
						}
					}
				}
			}
		}
	}
}
MOTION
Frames: 9
Frame Time: 0.041667
-0.055173 0.945949 1.400117 -3.529024 12.170087 5.550665 0.000000 0.000000 0.000000 -15.717539 7.842602 18.387038 23.804234 0.392685 -11.472980 66.931702 42.472681 153.043443 0.000000 0.000000 0.000000 12.702536 3.420216 -15.455491 -23.131220 -3.081727 -22.319064 -131.603901 -7.740994 167.415076 0.000000 0.000000 0.000000 5.412930 2.922734 -41.966395 -7.411342 2.462908 12.304936 5.087732 -3.072458 26.663400 0.000000 0.000000 0.000000 7.096280 0.106753 -86.848324 0.000000 0.000000 0.000000 -152.055961 -26.882756 14.369028 119.811384 -0.060341 -13.896482 5.998378 9.780747 61.262923 0.000000 0.000000 0.000000 166.476129 -32.672467 -79.605090 -28.640964 -13.059688 -84.835521 -7.249583 8.881859 -44.831611 
-0.060963 0.943348 1.385696 -3.069484 13.775052 4.425872 0.000000 0.000000 0.000000 -15.290908 7.755609 18.868159 23.855285 0.341634 -11.521609 64.359631 42.125544 152.542066 0.000000 0.000000 0.000000 12.430149 3.444062 -15.756959 -23.933060 -2.843484 -21.030749 -132.760095 -6.655818 167.879015 0.000000 0.000000 0.000000 4.549445 2.539833 -40.621198 -7.503265 2.516949 12.957334 7.440453 1.347874 26.529280 0.000000 0.000000 0.000000 0.148316 -4.562998 -85.846865 0.000000 0.000000 0.000000 -146.458686 -4.919418 -4.788003 99.106193 22.076858 -36.971184 25.381331 7.792698 47.396094 0.000000 0.000000 0.000000 160.541270 -13.992973 -61.514567 -45.755188 -29.446669 -84.612911 -18.182659 -4.374334 -39.701133 
-0.069238 0.938865 1.369207 -2.843008 14.532002 3.163006 0.000000 0.000000 0.000000 -15.080184 7.776898 19.347539 24.111499 0.305207 -11.512708 60.215710 42.028630 153.126673 0.000000 0.000000 0.000000 12.530192 3.493795 -15.979555 -24.391737 -2.701472 -20.327221 -135.831781 -5.807527 166.783533 0.000000 0.000000 0.000000 3.881800 2.329057 -39.614876 -7.740485 2.607068 13.455320 9.218505 4.667821 26.490758 0.000000 0.000000 0.000000 -4.519297 -7.275655 -83.121017 0.000000 0.000000 0.000000 -142.684263 12.334357 -17.643424 78.527104 26.097027 -52.930433 29.668590 8.995485 33.273802 0.000000 0.000000 0.000000 155.544628 4.301710 -44.640302 -79.577941 -43.681007 -61.923876 -37.177378 -20.117935 -20.758508 
-0.079121 0.932875 1.348436 -2.912572 15.201509 2.030695 0.000000 0.000000 0.000000 -14.907764 7.559210 19.023613 24.219487 0.214136 -11.224216 52.473634 42.688418 152.444900 0.000000 0.000000 0.000000 12.556454 3.638787 -16.636914 -24.348694 -2.606732 -19.924429 -140.165336 -4.402624 165.136643 0.000000 0.000000 0.000000 3.415770 2.176671 -38.793231 -7.829516 2.638358 13.725282 10.777280 7.419454 26.459658 0.000000 0.000000 0.000000 -8.013605 -8.967460 -80.004468 0.000000 0.000000 0.000000 -139.199132 25.314938 -25.644951 66.179370 24.984202 -61.431922 29.483727 9.844493 23.619017 0.000000 0.000000 0.000000 151.320892 23.318202 -27.911543 -125.462368 -28.909302 -17.332499 -62.745342 -20.255112 27.084479 
-0.090066 0.927055 1.323965 -3.266394 15.850790 0.703354 0.000000 0.000000 0.000000 -14.490994 7.375471 18.986379 24.308287 0.287745 -11.743674 39.034579 44.241312 149.056719 0.000000 0.000000 0.000000 12.830504 3.808228 -17.323248 -24.285960 -2.563063 -19.682897 -142.500661 -3.302020 164.434632 0.000000 0.000000 0.000000 3.259691 2.078352 -38.211337 -7.736744 2.628821 14.134911 12.117395 9.639779 26.450617 0.000000 0.000000 0.000000 -10.364574 -9.836499 -76.901798 0.000000 0.000000 0.000000 -135.254158 34.140129 -29.450909 60.841176 24.115846 -65.879786 28.823259 10.233142 17.453464 0.000000 0.000000 0.000000 148.607187 41.774937 -11.303659 -133.914108 13.049442 10.916577 -41.988874 -8.776584 79.102340 
-0.103322 0.924182 1.297228 -3.972396 14.240934 -0.825635 0.000000 0.000000 0.000000 -14.006793 7.827914 20.520560 24.855844 0.937221 -14.637530 27.483823 46.190909 147.356384 0.000000 0.000000 0.000000 14.059909 3.924281 -17.136113 -23.240441 -2.895730 -21.216555 -141.221727 -5.130266 164.031468 0.000000 0.000000 0.000000 4.817840 2.423304 -38.161379 -8.360048 2.867911 14.572209 12.173976 9.772015 26.592046 0.000000 0.000000 0.000000 -8.895154 -8.569241 -75.719679 0.000000 0.000000 0.000000 -133.572159 36.974267 -32.279031 60.739553 25.574448 -69.066127 28.665990 10.527086 13.677834 0.000000 0.000000 0.000000 149.202836 48.896533 -0.991919 -127.751029 25.399086 20.318701 -16.374150 -15.842346 87.378168 
-0.118040 0.925365 1.263699 -4.272991 11.478082 -1.590708 0.000000 0.000000 0.000000 -14.392412 8.323118 21.062627 25.694229 1.821861 -18.092939 16.916690 48.362217 146.826362 0.000000 0.000000 0.000000 15.258491 4.266304 -17.701781 -21.874920 -3.180324 -23.033591 -132.495033 -9.272441 166.030627 0.000000 0.000000 0.000000 7.282087 2.960919 -37.814508 -9.635283 3.235613 14.081737 11.173626 8.198028 26.960088 0.000000 0.000000 0.000000 -5.011911 -6.369289 -76.487014 0.000000 0.000000 0.000000 -134.471499 36.269972 -35.499153 62.178814 28.667529 -72.691073 28.286202 10.766444 10.034220 0.000000 0.000000 0.000000 150.781700 45.086806 -0.075231 -132.688467 7.424825 7.587483 -25.646467 -12.800065 78.721691 
-0.131294 0.930624 1.221138 -4.208619 9.934259 -1.592477 0.000000 0.000000 0.000000 -15.427949 8.020806 18.998539 26.934204 2.196619 -19.122466 10.625513 49.444274 146.030396 0.000000 0.000000 0.000000 15.818206 4.729280 -19.007013 -21.374971 -3.599361 -24.920201 -114.964943 -15.193630 171.132892 0.000000 0.000000 0.000000 9.325839 3.246731 -36.887266 -10.384028 3.411291 13.515810 10.468703 7.105561 27.285918 0.000000 0.000000 0.000000 -3.104557 -5.257103 -77.433846 0.000000 0.000000 0.000000 -135.179657 35.206197 -36.993135 63.095478 31.310228 -75.881359 27.793561 11.109424 4.082412 0.000000 0.000000 0.000000 152.170179 43.321899 1.325093 -131.519088 -5.216677 -0.286339 -25.481424 -12.749961 67.420833 
-0.143665 0.940183 1.172940 -4.142892 8.929743 -1.132027 0.000000 0.000000 0.000000 -16.203855 6.924864 15.205963 27.618936 2.185872 -18.687972 12.400845 49.799895 148.764810 0.000000 0.000000 0.000000 16.676450 4.665861 -18.338867 -21.131583 -5.210530 -30.587661 -90.853765 -26.077285 173.254760 0.000000 0.000000 0.000000 10.916487 3.360668 -35.731360 -10.648936 3.452730 13.087251 10.277385 6.581796 27.550344 0.000000 0.000000 0.000000 -2.744337 -4.847421 -78.402106 0.000000 0.000000 0.000000 -135.839685 34.224412 -37.664069 62.221158 32.615564 -78.819594 27.374274 11.693432 -5.372917 0.000000 0.000000 0.000000 153.931027 44.530726 5.447665 -130.411901 -9.221892 -3.040979 -16.278771 -13.344357 58.988597 
